<?xml version="1.0" encoding="UTF-8" standalone="no"?>
<!-- Created with Inkscape (http://www.inkscape.org/) -->

<svg
   xmlns:dc="http://purl.org/dc/elements/1.1/"
   xmlns:cc="http://creativecommons.org/ns#"
   xmlns:rdf="http://www.w3.org/1999/02/22-rdf-syntax-ns#"
   xmlns:svg="http://www.w3.org/2000/svg"
   xmlns="http://www.w3.org/2000/svg"
   version="1.0"
   width="400"
   height="450"
   viewBox="-3.033 -0.385 400 450"
   id="Layer_1"
   xml:space="preserve"
   style="overflow:visible"><metadata
   id="metadata3561"><rdf:RDF><cc:Work
       rdf:about=""><dc:format>image/svg+xml</dc:format><dc:type
         rdf:resource="http://purl.org/dc/dcmitype/StillImage" /><dc:title></dc:title></cc:Work></rdf:RDF></metadata><defs
   id="defs3559" />

<path
   d="m -3.033,-0.385 400,0 0,350 -400,0 0,-350 z"
   id="rect3943"
   style="fill:#eddbc9" /><g
   id="text3937"
   style="font-size:36px;font-style:normal;font-variant:normal;font-weight:normal;font-stretch:normal;text-align:start;line-height:100%;writing-mode:lr-tb;text-anchor:start;fill:#000000;font-family:DejaVu Sans Mono"><path
     d="m 29.631,46.697 c 2.9883,3e-6 5.0742,-0.73535 6.2578,-2.2061 1.1836,-1.4707 1.7754,-4.1279 1.7754,-7.9717 -1.6e-5,-3.8789 -0.58888,-6.5537 -1.7666,-8.0244 -1.17772,-1.4707 -3.2666,-2.206 -6.2666,-2.2061 h -1.6875 v 20.408 z m 0.07031,-23.326 c 4.0078,2.6e-5 6.9609,1.0664 8.8594,3.1992 1.8984,2.1328 2.8476,5.4492 2.8477,9.9492 -1.9e-5,4.4766 -0.94924,7.7783 -2.8477,9.9053 -1.89846,2.127 -4.8516,3.1904 -8.8594,3.1904 h -5.3262 v -26.244 z"
     id="path5784" /><path
     d="m 63.17,38.963 0,1.582 -14.01,0 0,0.10547 c -5e-6,2.1445 0.55956,3.8027 1.6787,4.9746 1.11914,1.1719 2.6982,1.7578 4.7373,1.7578 1.0312,2e-6 2.1094,-0.16406 3.2344,-0.49219 1.125,-0.32812 2.3262,-0.82617 3.6035,-1.4941 v 3.2168 c -1.2305,0.50391 -2.417,0.88184 -3.5596,1.1338 -1.1426,0.25195 -2.2471,0.37793 -3.3135,0.37793 -3.0586,0 -5.4492,-0.91699 -7.1719,-2.751 -1.7227,-1.83401 -2.584,-4.3623 -2.584,-7.585 -2e-6,-3.1406 0.84375,-5.6484 2.5312,-7.5234 1.6875,-1.875 3.9375,-2.8125 6.75,-2.8125 2.5078,2e-5 4.4853,0.84963 5.9326,2.5488 1.4472,1.6992 2.1709,4.0195 2.1709,6.9609 z m -3.2344,-0.94922 c -0.04689,-1.8984 -0.49513,-3.3428 -1.3447,-4.333 -0.84962,-0.99022 -2.0713,-1.4853 -3.665,-1.4854 -1.5586,1.7e-5 -2.8418,0.51564 -3.8496,1.5469 -1.0078,1.03126 -1.6055,2.461 -1.793,4.2891 z"
     id="path5786" /><path
     d="m 75.826,49.967 0,-17.525 -5.5723,0 0,-2.5137 8.8066,0 0,20.039 c -1.4e-5,2.2852 -0.52443,4.0459 -1.5732,5.2822 -1.04877,1.2363 -2.54,1.8545 -4.4736,1.8545 h -4.4648 v -2.7422 h 4.1133 c 1.0547,-4e-6 1.8457,-0.36622 2.373,-1.0986 0.52733,-0.73242 0.79101,-1.8311 0.79102,-3.2959 z m 0,-27.703 3.2344,0 0,4.0957 -3.2344,0 z"
     id="path5788" /><path
     d="m 99.276,39.719 -1.0723,0 c -1.8867,10e-6 -3.3076,0.33106 -4.2627,0.99316 -0.95508,0.66212 -1.4326,1.6494 -1.4326,2.9619 -6e-6,1.1836 0.35742,2.1035 1.0723,2.7598 0.71484,0.65625 1.7051,0.98438 2.9707,0.98438 1.7812,2e-6 3.1816,-0.61816 4.2012,-1.8545 1.0195,-1.2363 1.5351,-2.9443 1.5469,-5.124 v -0.7207 z m 6.2754,-1.3359 0,11.232 -3.252,0 0,-2.918 c -0.69142,1.1719 -1.5615,2.0361 -2.6104,2.5928 -1.0488,0.55664 -2.3233,0.83496 -3.8232,0.83496 -2.0039,0 -3.6035,-0.56543 -4.7988,-1.6963 -1.1953,-1.13087 -1.793,-2.6455 -1.793,-4.5439 -3e-6,-2.1914 0.73535,-3.8555 2.2061,-4.9922 1.4707,-1.1367 3.6299,-1.7051 6.4775,-1.7051 h 4.3418 V 36.6776 c -0.0117,-1.5703 -0.41017,-2.7099 -1.1953,-3.4189 -0.78517,-0.70897 -2.0391,-1.0635 -3.7617,-1.0635 -1.1016,1.7e-5 -2.2149,0.15822 -3.3398,0.47461 -1.125,0.31642 -2.2207,0.77931 -3.2871,1.3887 v -3.2344 c 1.1953,-0.45701 2.3408,-0.79978 3.4365,-1.0283 1.0957,-0.2285 2.1592,-0.34275 3.1904,-0.34277 1.6289,2e-5 3.0205,0.24026 4.1748,0.7207 1.1543,0.48049 2.0888,1.2012 2.8037,2.1621 0.4453,0.58595 0.76171,1.3096 0.94922,2.1709 0.18748,0.86134 0.28123,2.1533 0.28125,3.876 z"
     id="path5790" /><path
     d="m 119.42,46.627 6.1699,-23.256 3.6738,0 -7.6816,26.244 -4.3066,0 -7.6816,-26.244 3.6738,0 z"
     id="path5792" /><path
     d="m 133.68,42.162 0,-12.199 3.2344,0 0,12.199 c -1e-5,1.7695 0.31347,3.0703 0.94043,3.9023 0.62694,0.83203 1.5967,1.248 2.9092,1.248 1.5234,3e-6 2.6894,-0.53613 3.498,-1.6084 0.80858,-1.0723 1.2129,-2.6103 1.2129,-4.6143 v -11.127 h 3.252 v 19.652 h -3.252 v -2.9531 c -0.57424,1.1367 -1.3565,1.998 -2.3467,2.584 -0.99025,0.58594 -2.1475,0.87891 -3.4717,0.87891 -2.0156,0 -3.5156,-0.65918 -4.5,-1.9775 -0.98438,-1.3184 -1.4766,-3.3135 -1.4766,-5.9854 z"
     id="path5794" /><path
     d="m 191.35,24.267 0,3.6035 c -1.0781,-0.69138 -2.1592,-1.2129 -3.2432,-1.5645 -1.084,-0.35154 -2.1768,-0.52732 -3.2783,-0.52734 -1.6758,2.4e-5 -3,0.38967 -3.9727,1.1689 -0.97266,0.77932 -1.459,1.8311 -1.459,3.1553 -1e-5,1.1602 0.31933,2.0449 0.958,2.6543 0.63867,0.60939 1.831,1.1192 3.5772,1.5293 l 1.8633,0.42188 c 2.4609,0.57423 4.2539,1.4766 5.3789,2.707 1.125,1.2305 1.6875,2.9063 1.6875,5.0273 -2e-5,2.4961 -0.77346,4.4004 -2.3203,5.7129 -1.5469,1.3125 -3.7969,1.9688 -6.75,1.9688 -1.2305,0 -2.4668,-0.13184 -3.709,-0.39551 -1.2422,-0.26367 -2.4902,-0.65918 -3.7441,-1.1865 v -3.7793 c 1.3476,0.85547 2.6221,1.4824 3.8232,1.8809 1.2012,0.39844 2.4111,0.59766 3.6299,0.59766 1.793,2e-6 3.1875,-0.40136 4.1836,-1.2041 0.99608,-0.80273 1.4941,-1.9248 1.4941,-3.3662 -1e-5,-1.3125 -0.34279,-2.3144 -1.0283,-3.0059 -0.68556,-0.6914 -1.8779,-1.2246 -3.5772,-1.5996 l -1.8984,-0.43945 c -2.4375,-0.55077 -4.207,-1.3828 -5.3086,-2.4961 -1.1016,-1.1133 -1.6523,-2.6074 -1.6523,-4.4824 0,-2.3437 0.78808,-4.2217 2.3643,-5.6338 1.57622,-1.4121 3.6709,-2.1181 6.2842,-2.1182 1.0078,2.6e-5 2.0683,0.11428 3.1816,0.34277 1.1133,0.22854 2.2851,0.57132 3.5156,1.0283 z"
     id="path5796" /><path
     d="m 207.56,39.719 -1.0723,0 c -1.8867,10e-6 -3.3076,0.33106 -4.2627,0.99316 -0.95508,0.66212 -1.4326,1.6494 -1.4326,2.9619 0,1.1836 0.35742,2.1035 1.0723,2.7598 0.71484,0.65625 1.7051,0.98438 2.9707,0.98438 1.7812,2e-6 3.1816,-0.61816 4.2012,-1.8545 1.0195,-1.2363 1.5351,-2.9443 1.5469,-5.124 v -0.7207 z m 6.2754,-1.3359 0,11.232 -3.252,0 0,-2.918 c -0.69142,1.1719 -1.5615,2.0361 -2.6104,2.5928 -1.0488,0.55664 -2.3232,0.83496 -3.8232,0.83496 -2.0039,0 -3.6035,-0.56543 -4.7988,-1.6963 -1.1953,-1.13087 -1.793,-2.6455 -1.793,-4.5439 0,-2.1914 0.73535,-3.8555 2.206,-4.9922 1.4707,-1.1367 3.6299,-1.7051 6.4775,-1.7051 h 4.3418 V 36.6776 c -0.0117,-1.5703 -0.41017,-2.7099 -1.1953,-3.4189 -0.78517,-0.70897 -2.0391,-1.0635 -3.7617,-1.0635 -1.1016,1.7e-5 -2.2148,0.15822 -3.3398,0.47461 -1.125,0.31642 -2.2207,0.77931 -3.2871,1.3887 v -3.2344 c 1.1953,-0.45701 2.3408,-0.79978 3.4365,-1.0283 1.0957,-0.2285 2.1592,-0.34275 3.1904,-0.34277 1.6289,2e-5 3.0205,0.24026 4.1748,0.7207 1.1543,0.48049 2.0888,1.2012 2.8037,2.1621 0.4453,0.58595 0.76171,1.3096 0.94922,2.1709 0.18748,0.86134 0.28123,2.1533 0.28125,3.876 z"
     id="path5798" /><path
     d="m 235.35,37.416 0,12.199 -3.252,0 0,-12.199 c -2e-5,-1.7695 -0.31057,-3.0703 -0.93165,-3.9023 -0.6211,-0.83201 -1.5938,-1.248 -2.918,-1.248 -1.5117,1.8e-5 -2.6748,0.53615 -3.4893,1.6084 -0.81446,1.0723 -1.2217,2.6104 -1.2217,4.6143 v 11.127 h -3.2344 v -19.688 h 3.2344 v 2.9531 c 0.57421,-1.125 1.3535,-1.9775 2.3379,-2.5576 0.98436,-0.58006 2.1504,-0.8701 3.498,-0.87012 2.0039,2e-5 3.501,0.6592 4.4912,1.9775 0.99021,1.3184 1.4853,3.3135 1.4854,5.9854 z"
     id="path5800" /><path
     d="m 255.63,30.613 0,3.1641 c -0.92579,-0.53905 -1.8574,-0.94334 -2.7949,-1.2129 -0.93751,-0.26951 -1.8926,-0.40428 -2.8652,-0.4043 -1.4649,1.7e-5 -2.5576,0.23732 -3.2783,0.71191 -0.72071,0.47462 -1.0811,1.1983 -1.0811,2.1709 0,0.87892 0.26953,1.5352 0.8086,1.9688 0.53905,0.43361 1.8808,0.85548 4.0254,1.2656 l 1.3008,0.24609 c 1.6054,0.3047 2.8213,0.91407 3.6475,1.8281 0.82615,0.91407 1.2392,2.1035 1.2393,3.5684 -2e-5,1.9453 -0.69143,3.4658 -2.0742,4.5615 -1.38277,1.0957 -3.3047,1.6436 -5.7656,1.6436 -0.97266,0 -1.9922,-0.10254 -3.0586,-0.30762 -1.0664,-0.20508 -2.2207,-0.5127 -3.4629,-0.92285 v -3.3398 c 1.207,0.6211 2.3613,1.0869 3.4629,1.3975 1.1016,0.31055 2.1445,0.46582 3.1289,0.46582 1.4297,2e-6 2.5371,-0.29004 3.3223,-0.87012 0.78514,-0.58008 1.1777,-1.3916 1.1777,-2.4346 -2e-5,-1.5 -1.4356,-2.5371 -4.3066,-3.1113 l -0.14063,-0.03516 -1.2129,-0.24609 c -1.8633,-0.36327 -3.2227,-0.97558 -4.0781,-1.8369 -0.85548,-0.86132 -1.2832,-2.0361 -1.2832,-3.5244 0,-1.8867 0.63867,-3.3428 1.916,-4.3682 1.27733,-1.0254 3.0996,-1.5381 5.4668,-1.5381 1.0547,2e-5 2.0684,0.0967 3.041,0.29004 0.97264,0.19338 1.9277,0.48342 2.8652,0.87012 z"
     id="path5802" /><path
     d="m 283.35,23.371 4.7461,0 4.5352,13.359 4.5703,-13.359 4.7637,0 0,26.244 -3.2871,0 0,-23.186 -4.6758,13.834 -2.6894,0 -4.6934,-13.834 0,23.186 -3.2695,0 z"
     id="path5804" /><path
     d="m 314.33,32.195 c -1.6406,1.7e-5 -2.8828,0.63869 -3.7266,1.916 -0.84375,1.2774 -1.2656,3.1699 -1.2656,5.6777 -1e-5,2.4961 0.42187,4.3857 1.2656,5.6689 0.84374,1.2832 2.0859,1.9248 3.7266,1.9248 1.6523,2e-6 2.9004,-0.6416 3.7441,-1.9248 0.84374,-1.2832 1.2656,-3.1728 1.2656,-5.6689 -2e-5,-2.5078 -0.42189,-4.4004 -1.2656,-5.6777 -0.84376,-1.2773 -2.0918,-1.916 -3.7441,-1.916 z m 0,-2.7422 c 2.7305,2e-5 4.8193,0.88478 6.2666,2.6543 1.4472,1.7695 2.1709,4.3301 2.1709,7.6816 -2e-5,3.3633 -0.72072,5.9268 -2.1621,7.6904 -1.4414,1.7637 -3.5332,2.6455 -6.2754,2.6455 -2.7305,0 -4.8164,-0.88184 -6.2578,-2.6455 -1.4414,-1.76366 -2.1621,-4.3271 -2.1621,-7.6904 0,-3.3516 0.7207,-5.9121 2.1621,-7.6816 1.4414,-1.7695 3.5273,-2.6543 6.2578,-2.6543 z"
     id="path5806" /><path
     d="m 343.63,37.416 0,12.199 -3.252,0 0,-12.199 c -2e-5,-1.7695 -0.31057,-3.0703 -0.93165,-3.9023 -0.6211,-0.83201 -1.5938,-1.248 -2.918,-1.248 -1.5117,1.8e-5 -2.6748,0.53615 -3.4893,1.6084 -0.81446,1.0723 -1.2217,2.6104 -1.2217,4.6143 v 11.127 h -3.2344 v -19.688 h 3.2344 v 2.9531 c 0.57421,-1.125 1.3535,-1.9775 2.3379,-2.5576 0.98436,-0.58006 2.1504,-0.8701 3.498,-0.87012 2.0039,2e-5 3.501,0.6592 4.4912,1.9775 0.99021,1.3184 1.4853,3.3135 1.4854,5.9854 z"
     id="path5808" /><path
     d="m 357.64,32.195 c -1.6406,1.7e-5 -2.8828,0.63869 -3.7266,1.916 -0.84375,1.2774 -1.2656,3.1699 -1.2656,5.6777 -1e-5,2.4961 0.42187,4.3857 1.2656,5.6689 0.84374,1.2832 2.0859,1.9248 3.7266,1.9248 1.6523,2e-6 2.9004,-0.6416 3.7441,-1.9248 0.84374,-1.2832 1.2656,-3.1728 1.2656,-5.6689 -2e-5,-2.5078 -0.42189,-4.4004 -1.2656,-5.6777 -0.84376,-1.2773 -2.0918,-1.916 -3.7441,-1.916 z m 0,-2.7422 c 2.7305,2e-5 4.8193,0.88478 6.2666,2.6543 1.4472,1.7695 2.1709,4.3301 2.1709,7.6816 -2e-5,3.3633 -0.72072,5.9268 -2.1621,7.6904 -1.4414,1.7637 -3.5332,2.6455 -6.2754,2.6455 -2.7305,0 -4.8164,-0.88184 -6.2578,-2.6455 -1.4414,-1.76366 -2.1621,-4.3271 -2.1621,-7.6904 0,-3.3516 0.7207,-5.9121 2.1621,-7.6816 1.4414,-1.7695 3.5273,-2.6543 6.2578,-2.6543 z"
     id="path5810" /></g>
<path
   d="m -3.033,299.61 400,0 0,150 -400,0 0,-150 z"
   id="rect3945"
   style="fill:#1a8d1a" /><g
   id="text3961"
   style="font-size:40px;font-style:normal;font-variant:normal;font-weight:bold;font-stretch:normal;text-align:center;line-height:125%;writing-mode:lr-tb;text-anchor:middle;fill:#000000;font-family:DejaVu Sans Mono"><path
     d="m 38.373,100.73 -2.7148,11.934 5.4492,0 z m -3.5156,-5.2734 7.0508,0 7.8711,29.16 -5.7617,0 -1.7969,-7.207 -7.7148,0 -1.7578,7.207 -5.7617,0 z"
     id="path5814" /><path
     d="m 64.076,114.34 c -2.1354,1e-5 -3.6263,0.27345 -4.4727,0.82031 -0.84636,0.54689 -1.2695,1.4844 -1.2695,2.8125 -8e-6,0.98959 0.29296,1.7774 0.87891,2.3633 0.58593,0.58595 1.3802,0.87891 2.3828,0.87891 1.5104,0 2.6823,-0.56966 3.5156,-1.709 0.83332,-1.1393 1.25,-2.7311 1.25,-4.7754 v -0.39063 z m 7.9688,-2.207 0,12.48 -5.6836,0 0,-2.4414 c -0.69012,0.96354 -1.5755,1.7057 -2.6562,2.2266 -1.0807,0.52084 -2.2721,0.78125 -3.5742,0.78125 -2.487,0 -4.4238,-0.65755 -5.8105,-1.9726 -1.3867,-1.3151 -2.0801,-3.151 -2.0801,-5.5078 -2e-6,-2.5521 0.82682,-4.4368 2.4805,-5.6543 1.6536,-1.2174 4.2122,-1.8262 7.6758,-1.8262 h 3.9648 v -0.95703 c -1.6e-5,-0.92447 -0.3353,-1.6243 -1.0059,-2.0996 -0.67059,-0.47525 -1.6569,-0.71288 -2.959,-0.71289 -1.3672,1e-5 -2.6921,0.17254 -3.9746,0.51757 -1.2826,0.34507 -2.6204,0.8952 -4.0137,1.6504 v -4.8828 c 1.263,-0.52081 2.5456,-0.90492 3.8477,-1.1523 1.3021,-0.24738 2.6823,-0.37107 4.1406,-0.3711 3.5547,3e-5 6.0514,0.72268 7.4902,2.168 1.4388,1.44532 2.1582,4.03 2.1582,7.7539 z"
     id="path5816" /></g>
<g
   id="text3965"
   style="font-size:40px;font-style:normal;font-variant:normal;font-weight:bold;font-stretch:normal;text-align:center;line-height:125%;writing-mode:lr-tb;text-anchor:middle;fill:#000000;font-family:DejaVu Sans Mono"><path
     d="m 119.35,124.62 -18.164,0 0,-29.16 18.164,0 0,5.0781 -12.402,0 0,6.2891 11.23,0 0,5.0781 -11.23,0 0,7.6367 12.402,0 z"
     id="path5819" /><path
     d="m 143.49,123.54 c -1.3281,0.54687 -2.6823,0.95703 -4.0625,1.2305 -1.3802,0.27343 -2.8386,0.41015 -4.375,0.41015 -3.6589,0 -6.4551,-0.97981 -8.3887,-2.9394 -1.9336,-1.95959 -2.9004,-4.7819 -2.9004,-8.4668 0,-3.5677 0.93099,-6.3867 2.793,-8.457 1.86201,-2.0703 4.401,-3.1054 7.6172,-3.1055 3.2422,3e-5 5.7584,0.96031 7.5488,2.8809 1.7903,1.9206 2.6855,4.6257 2.6855,8.1152 v 2.3242 h -14.824 c 0.013,1.7188 0.52083,3.0013 1.5234,3.8476 1.0026,0.84636 2.5,1.2695 4.4922,1.2695 1.3151,1e-5 2.6107,-0.18879 3.8867,-0.5664 1.276,-0.3776 2.6107,-0.97656 4.0039,-1.7969 z m -4.8438,-12.305 c -0.026,-1.5104 -0.41342,-2.653 -1.1621,-3.4277 -0.74872,-0.77472 -1.8522,-1.1621 -3.3106,-1.1621 -1.3151,2e-5 -2.3633,0.40041 -3.1445,1.2012 -0.78126,0.8008 -1.2435,1.9369 -1.3867,3.4082 z"
     id="path5821" /></g>
<g
   id="text3969"
   style="font-size:40px;font-style:normal;font-variant:normal;font-weight:bold;font-stretch:normal;text-align:center;line-height:125%;writing-mode:lr-tb;text-anchor:middle;fill:#000000;font-family:DejaVu Sans Mono"><path
     d="m 182.05,125.06 c -0.1823,0.0391 -0.3353,0.0684 -0.45898,0.0879 -0.12371,0.0195 -0.24416,0.0293 -0.36133,0.0293 -3.3464,0 -5.8822,-1.276 -7.6074,-3.8281 -1.7253,-2.5521 -2.5879,-6.3151 -2.5879,-11.289 -1e-5,-4.987 0.86262,-8.7565 2.5879,-11.309 1.7252,-2.5521 4.2741,-3.8281 7.6465,-3.8281 3.3854,3e-5 5.9407,1.2761 7.666,3.8281 1.7252,2.5521 2.5879,6.3216 2.5879,11.309 -3e-5,3.4245 -0.41018,6.2923 -1.2305,8.6035 -0.82033,2.3112 -2.0117,3.9616 -3.5742,4.9512 l 3.6328,3.5547 -3.9453,2.9297 z m -0.78125,-24.961 c -1.4714,2e-5 -2.5456,0.78453 -3.2227,2.3535 -0.67709,1.569 -1.0156,4.1048 -1.0156,7.6074 -1e-5,3.4896 0.33853,6.0189 1.0156,7.5879 0.67708,1.569 1.7513,2.3535 3.2227,2.3535 1.4844,1e-5 2.5651,-0.7845 3.2422,-2.3535 0.67707,-1.569 1.0156,-4.0983 1.0156,-7.5879 -10e-6,-3.5026 -0.33855,-6.0384 -1.0156,-7.6074 -0.6771,-1.569 -1.7578,-2.3535 -3.2422,-2.3535 z"
     id="path5824" /><path
     d="m 200.78,113.66 c -1e-5,2.1094 0.35155,3.763 1.0547,4.9609 0.70311,1.1979 1.6732,1.7969 2.9102,1.7969 1.237,0 2.2135,-0.59895 2.9297,-1.7969 0.71613,-1.1979 1.0742,-2.8516 1.0742,-4.9609 -2e-5,-2.1094 -0.35809,-3.763 -1.0742,-4.9609 -0.71616,-1.1979 -1.6927,-1.7969 -2.9297,-1.7969 -1.237,2e-5 -2.207,0.59898 -2.9102,1.7969 -0.70314,1.1979 -1.0547,2.8516 -1.0547,4.9609 z m 7.9688,7.8711 c -0.70314,1.224 -1.5202,2.1387 -2.4512,2.7441 -0.931,0.60547 -1.9824,0.9082 -3.1543,0.9082 -2.5912,0 -4.5866,-0.98958 -5.9863,-2.9688 -1.3997,-1.97922 -2.0996,-4.8177 -2.0996,-8.5156 0,-3.6458 0.6901,-6.4713 2.0703,-8.4766 1.3802,-2.0052 3.3203,-3.0078 5.8203,-3.0078 1.3151,3e-5 2.4577,0.31904 3.4277,0.95704 0.97004,0.63804 1.761,1.5886 2.373,2.8516 v -3.2812 h 5.7031 v 30.195 h -5.7031 z"
     id="path5826" /></g>
<g
   id="text3989"
   style="font-size:268.52087402px;font-style:normal;font-variant:normal;font-weight:bold;font-stretch:normal;text-align:start;line-height:100%;writing-mode:lr-tb;text-anchor:start;fill:#808080;font-family:Adobe Jenson Pro"><path
     d="m 331.26,127.06 -5.1522,0 c -9.0657,5e-5 -15.893,1.5908 -20.482,4.7721 -4.5892,3.1815 -6.8837,7.9254 -6.8837,14.232 -3e-5,5.6872 1.7174,10.107 5.1522,13.261 3.4348,3.1533 8.1928,4.7299 14.274,4.7299 8.5588,1e-5 15.288,-2.9702 20.187,-8.9108 4.8988,-5.9405 7.3763,-14.147 7.4327,-24.621 v -3.463 z m 30.153,-6.4192 0,53.972 -15.626,0 0,-14.021 c -3.3223,5.6308 -7.5032,9.7836 -12.543,12.458 -5.0397,2.6746 -11.163,4.012 -18.371,4.012 -9.6288,0 -17.315,-2.7169 -23.058,-8.1506 -5.7435,-5.4338 -8.6152,-12.712 -8.6152,-21.834 -2e-5,-10.53 3.5333,-18.525 10.6,-23.987 7.0667,-5.4618 17.441,-8.1928 31.124,-8.1929 h 20.862 v -2.4494 c -0.0564,-7.5452 -1.9709,-13.021 -5.7434,-16.428 -3.7727,-3.4066 -9.7977,-5.1099 -18.075,-5.11 -5.293,8.4e-5 -10.642,0.76025 -16.048,2.2805 -5.4056,1.5204 -10.67,3.7446 -15.794,6.6725 v -15.541 c 5.7434,-2.1959 11.248,-3.843 16.512,-4.9411 5.2648,-1.0979 10.375,-1.6469 15.33,-1.647 7.8268,9.7e-5 14.513,1.1544 20.06,3.463 5.5463,2.3087 10.037,5.7717 13.472,10.389 2.1396,2.8155 3.66,6.2925 4.561,10.431 0.90084,4.1387 1.3513,10.347 1.3514,18.624 z"
     id="path5829"
     style="text-align:end;fill:#808080" /></g>
<g
   id="text3937-4"
   style="font-size:48px;font-style:normal;font-variant:normal;font-weight:normal;font-stretch:normal;text-align:end;line-height:100%;writing-mode:lr-tb;text-anchor:end;fill:#1a8d1a;font-family:DejaVu Sans Mono"><path
     d="m 88.178,247.15 c -2.1e-5,-5.1406 -0.52736,-8.8125 -1.582,-11.016 -1.0547,-2.2031 -2.7852,-3.3047 -5.1914,-3.3047 -2.3906,3e-5 -4.1133,1.1016 -5.168,3.3047 -1.0547,2.2032 -1.582,5.875 -1.582,11.016 -7e-6,5.125 0.52734,8.7891 1.582,10.992 1.0547,2.2031 2.7773,3.3047 5.168,3.3047 2.4062,0 4.1367,-1.0976 5.1914,-3.293 1.0547,-2.1953 1.582,-5.8633 1.582,-11.004 z m 4.9453,0 c -2.6e-5,6.0938 -0.96487,10.641 -2.8945,13.641 -1.9297,3 -4.8711,4.5 -8.8242,4.5 -3.9531,0 -6.8906,-1.4922 -8.8125,-4.4766 -1.9219,-2.9844 -2.8828,-7.5391 -2.8828,-13.664 -3e-6,-6.1094 0.96484,-10.664 2.8945,-13.664 1.92966,-3 4.8633,-4.5 8.8008,-4.5 3.9531,4e-5 6.8945,1.5 8.8242,4.5 1.9297,3 2.8945,7.5547 2.8945,13.664 z"
     id="path5832" /><path
     d="m 104.63,261.31 0,13.289 -4.3359,0 0,-36.234 4.3359,0 0,3.3516 c 0.71874,-1.2968 1.6758,-2.2851 2.8711,-2.9648 1.1953,-0.67966 2.5742,-1.0195 4.1367,-1.0195 3.1718,2e-5 5.6601,1.2266 7.4648,3.6797 1.8047,2.4531 2.707,5.8516 2.707,10.195 -3e-5,4.2656 -0.90627,7.6133 -2.7188,10.043 -1.81253,2.4297 -4.2969,3.6445 -7.4531,3.6445 -1.5938,0 -2.9883,-0.33985 -4.1836,-1.0195 -1.1953,-0.67969 -2.1367,-1.668 -2.8242,-2.9648 z m 12.656,-9.7969 c -2e-5,-3.3437 -0.52736,-5.8672 -1.582,-7.5703 -1.0547,-1.7031 -2.6211,-2.5547 -4.6992,-2.5547 -2.0938,2e-5 -3.6797,0.85549 -4.7578,2.5664 -1.0781,1.711 -1.6172,4.2305 -1.6172,7.5586 -1e-5,3.3125 0.53906,5.8281 1.6172,7.5469 1.07814,1.7188 2.664,2.5781 4.7578,2.5781 2.0781,0 3.6445,-0.85156 4.6992,-2.5547 1.0547,-1.70314 1.582,-4.2266 1.582,-7.5703 z"
     id="path5834" /><path
     d="m 150.78,250.41 0,2.1094 -18.68,0 0,0.14063 c 0,2.8594 0.74609,5.0703 2.2383,6.6328 1.49221,1.5625 3.5976,2.3438 6.3164,2.3438 1.375,0 2.8125,-0.21875 4.3125,-0.65625 1.5,-0.4375 3.1015,-1.1016 4.8047,-1.9922 v 4.2891 c -1.6406,0.67188 -3.2227,1.1758 -4.7461,1.5117 -1.5234,0.33594 -2.9961,0.50391 -4.418,0.50391 -4.0781,0 -7.2656,-1.2227 -9.5625,-3.668 -2.2969,-2.4453 -3.4453,-5.8164 -3.4453,-10.113 0,-4.1875 1.125,-7.5312 3.375,-10.031 2.25,-2.5 5.25,-3.75 9,-3.75 3.3437,2e-5 5.9804,1.1328 7.9102,3.3984 1.9297,2.2656 2.8945,5.3594 2.8945,9.2812 z m -4.3125,-1.2656 c -0.0625,-2.5312 -0.66018,-4.457 -1.793,-5.7773 -1.13282,-1.3203 -2.7617,-1.9804 -4.8867,-1.9805 -2.0781,2e-5 -3.7891,0.68752 -5.1328,2.0625 -1.3438,1.375 -2.1406,3.2813 -2.3906,5.7188 z"
     id="path5836" /><path
     d="m 178.22,248.35 0,16.266 -4.3359,0 0,-16.266 c -2e-5,-2.3594 -0.41409,-4.0937 -1.2422,-5.2031 -0.82815,-1.1094 -2.125,-1.664 -3.8906,-1.6641 -2.0156,2e-5 -3.5664,0.71486 -4.6523,2.1445 -1.086,1.4297 -1.6289,3.4805 -1.6289,6.1523 v 14.836 h -4.3125 v -26.25 h 4.3125 v 3.9375 c 0.76562,-1.5 1.8047,-2.6367 3.1172,-3.4102 1.3125,-0.77341 2.8672,-1.1601 4.6641,-1.1602 2.6719,2e-5 4.668,0.87893 5.9883,2.6367 1.3203,1.75777 1.9804,4.418 1.9805,7.9805 z"
     id="path5838" /><path
     d="m 234.15,239.28 0,4.2188 c -1.2344,-0.71873 -2.4766,-1.2578 -3.7266,-1.6172 -1.25,-0.35936 -2.5235,-0.53904 -3.8203,-0.53907 -1.9531,3e-5 -3.4102,0.31643 -4.3711,0.94922 -0.96095,0.63284 -1.4414,1.5977 -1.4414,2.8945 -1e-5,1.1719 0.35937,2.0469 1.0781,2.625 0.71874,0.57814 2.5078,1.1406 5.3672,1.6875 l 1.7344,0.32813 c 2.1406,0.40626 3.7617,1.2188 4.8633,2.4375 1.1015,1.2188 1.6523,2.8047 1.6524,4.7578 -3e-5,2.5938 -0.9219,4.6211 -2.7656,6.082 -1.8438,1.4609 -4.4063,2.1914 -7.6875,2.1914 -1.2969,0 -2.6563,-0.13672 -4.0781,-0.41016 -1.4219,-0.27344 -2.961,-0.68359 -4.6172,-1.2305 v -4.4531 c 1.6094,0.82813 3.1484,1.4492 4.6172,1.8633 1.4687,0.41406 2.8594,0.6211 4.1719,0.62109 1.9062,10e-6 3.3828,-0.38671 4.4297,-1.1602 1.0468,-0.77344 1.5703,-1.8555 1.5703,-3.2461 -2e-5,-2 -1.9141,-3.3828 -5.7422,-4.1484 l -0.1875,-0.0469 -1.6172,-0.32812 c -2.4844,-0.48437 -4.2969,-1.3008 -5.4375,-2.4492 -1.1406,-1.1484 -1.711,-2.7148 -1.7109,-4.6992 -1e-5,-2.5156 0.85155,-4.457 2.5547,-5.8242 1.7031,-1.3672 4.1328,-2.0508 7.2891,-2.0508 1.4062,2e-5 2.7578,0.12893 4.0547,0.38672 1.2968,0.25784 2.5703,0.64455 3.8203,1.1602 z"
     id="path5840" /><path
     d="m 254.65,241.39 c -2.1875,2e-5 -3.8438,0.85158 -4.9688,2.5547 -1.125,1.70312 -1.6875,4.2266 -1.6875,7.5703 -1e-5,3.3281 0.56249,5.8477 1.6875,7.5586 1.12501,1.7109 2.7812,2.5664 4.9688,2.5664 2.2031,0 3.8672,-0.85547 4.9922,-2.5664 1.125,-1.71093 1.6875,-4.2305 1.6875,-7.5586 -2e-5,-3.3437 -0.56252,-5.8672 -1.6875,-7.5703 -1.12498,-1.7031 -2.7891,-2.5547 -4.9922,-2.5547 z m 0,-3.6562 c 3.6406,2e-5 6.4258,1.1797 8.3555,3.5391 1.9297,2.3594 2.8945,5.7735 2.8945,10.242 -3e-5,4.4844 -0.96096,7.9024 -2.8828,10.254 -1.9219,2.3516 -4.711,3.5274 -8.3672,3.5274 -3.6406,0 -6.4219,-1.1758 -8.3438,-3.5274 -1.9219,-2.3516 -2.8828,-5.7695 -2.8828,-10.254 -10e-6,-4.4687 0.96093,-7.8828 2.8828,-10.242 1.9219,-2.3594 4.7031,-3.539 8.3438,-3.5391 z"
     id="path5842" /><path
     d="m 273.66,254.68 0,-16.266 4.3125,0 0,16.266 c -1e-5,2.3594 0.41796,4.0938 1.2539,5.2031 0.83593,1.1094 2.1289,1.6641 3.8789,1.6641 2.0312,0 3.5859,-0.71484 4.6641,-2.1445 1.0781,-1.4297 1.6172,-3.4805 1.6172,-6.1524 v -14.836 h 4.3359 v 26.203 h -4.3359 v -3.9375 c -0.76565,1.5156 -1.8086,2.6641 -3.1289,3.4453 -1.3203,0.78125 -2.8633,1.1719 -4.6289,1.1719 -2.6875,0 -4.6875,-0.87891 -6,-2.6367 -1.3125,-1.75779 -1.9688,-4.418 -1.9688,-7.9805 z"
     id="path5844" /><path
     d="m 325.04,243.78 c -0.9219,-0.71873 -1.8594,-1.2422 -2.8125,-1.5703 -0.95315,-0.3281 -2,-0.49216 -3.1406,-0.49219 -2.6875,3e-5 -4.7422,0.84377 -6.1641,2.5312 -1.4219,1.6875 -2.1328,4.125 -2.1328,7.3125 v 13.055 h -4.3359 v -26.25 h 4.3359 v 5.1328 c 0.71874,-1.8594 1.8242,-3.2851 3.3164,-4.2773 1.4922,-0.99216 3.2617,-1.4883 5.3086,-1.4883 1.0625,2e-5 2.0547,0.13284 2.9766,0.39844 0.92185,0.26565 1.8047,0.67971 2.6484,1.2422 z"
     id="path5846" /><path
     d="m 351.71,263.28 c -1.1563,0.67188 -2.3477,1.1758 -3.5742,1.5117 -1.2266,0.33594 -2.4805,0.50391 -3.7617,0.50391 -4.0625,0 -7.2383,-1.2188 -9.5273,-3.6562 -2.2891,-2.4375 -3.4336,-5.8125 -3.4336,-10.125 0,-4.3125 1.1445,-7.6875 3.4336,-10.125 2.289,-2.4375 5.4648,-3.6562 9.5273,-3.6562 1.2656,2e-5 2.5,0.16409 3.7031,0.49219 1.2031,0.32815 2.414,0.83596 3.6328,1.5234 v 4.5234 c -1.1406,-1.0156 -2.2852,-1.75 -3.4336,-2.2031 -1.1484,-0.45311 -2.4492,-0.67967 -3.9023,-0.67969 -2.7031,2e-5 -4.7813,0.87502 -6.2344,2.625 -1.4531,1.74998 -2.1797,4.25 -2.1797,7.5 -10e-6,3.2344 0.73046,5.7305 2.1914,7.4883 1.46094,1.7578 3.5352,2.6367 6.2227,2.6367 1.5,0 2.8437,-0.23047 4.0312,-0.69141 1.1875,-0.46093 2.289,-1.1758 3.3047,-2.1445 z"
     id="path5848" /><path
     d="m 381.78,250.41 0,2.1094 -18.68,0 0,0.14063 c 0,2.8594 0.74609,5.0703 2.2383,6.6328 1.49221,1.5625 3.5976,2.3438 6.3164,2.3438 1.375,0 2.8125,-0.21875 4.3125,-0.65625 1.5,-0.4375 3.1015,-1.1016 4.8047,-1.9922 v 4.2891 c -1.6406,0.67188 -3.2227,1.1758 -4.7461,1.5117 -1.5234,0.33594 -2.9961,0.50391 -4.418,0.50391 -4.0781,0 -7.2656,-1.2227 -9.5625,-3.668 -2.2969,-2.4453 -3.4453,-5.8164 -3.4453,-10.113 0,-4.1875 1.125,-7.5312 3.375,-10.031 2.25,-2.5 5.25,-3.75 9,-3.75 3.3437,2e-5 5.9804,1.1328 7.9102,3.3984 1.9297,2.2656 2.8945,5.3594 2.8945,9.2812 z m -4.3125,-1.2656 c -0.0625,-2.5312 -0.66018,-4.457 -1.793,-5.7773 -1.13282,-1.3203 -2.7617,-1.9804 -4.8867,-1.9805 -2.0781,2e-5 -3.7891,0.68752 -5.1328,2.0625 -1.3438,1.375 -2.1406,3.2813 -2.3906,5.7188 z"
     id="path5850" /></g>
<g
   id="text4022"
   style="font-size:40px;font-style:normal;font-variant:normal;font-weight:normal;font-stretch:normal;text-align:start;line-height:108.00000429%;writing-mode:lr-tb;text-anchor:start;fill:#000000;font-family:DejaVu Sans Mono"><path
     d="m 35.678,328.62 -1.1914,0 c -2.0964,10e-6 -3.6751,0.36785 -4.7363,1.1035 -1.0612,0.73569 -1.5918,1.8327 -1.5918,3.291 -6e-6,1.3151 0.39713,2.3372 1.1914,3.0664 0.79426,0.72917 1.8945,1.0938 3.3008,1.0938 1.9792,1e-5 3.5351,-0.68684 4.668,-2.0605 1.1328,-1.3737 1.7057,-3.2715 1.7188,-5.6934 v -0.80078 z m 6.9727,-1.4844 0,12.48 -3.6133,0 0,-3.2422 c -0.76825,1.3021 -1.735,2.2624 -2.9004,2.8809 -1.1654,0.61849 -2.5814,0.92774 -4.248,0.92774 -2.2266,0 -4.0039,-0.62826 -5.332,-1.8848 -1.3281,-1.25654 -1.9922,-2.9394 -1.9922,-5.0488 -2e-6,-2.4349 0.81705,-4.2838 2.4512,-5.5469 1.6341,-1.263 4.0332,-1.8945 7.1973,-1.8945 h 4.8242 v -0.56641 c -0.01304,-1.7448 -0.45575,-3.011 -1.3281,-3.7988 -0.87241,-0.78774 -2.2656,-1.1816 -4.1797,-1.1816 -1.224,2e-5 -2.4609,0.1758 -3.7109,0.52735 -1.25,0.35158 -2.4675,0.8659 -3.6523,1.543 v -3.5938 c 1.3281,-0.50779 2.6009,-0.88865 3.8184,-1.1426 1.2174,-0.25389 2.3991,-0.38084 3.5449,-0.38086 1.8099,2e-5 3.3561,0.26695 4.6387,0.80078 1.2825,0.53387 2.3209,1.3346 3.1152,2.4023 0.49477,0.65106 0.84633,1.4551 1.0547,2.4121 0.20831,0.95705 0.31248,2.3926 0.3125,4.3066 z"
     id="path5853" /><path
     d="m 63.959,328.7 c -1.8e-5,-2.7864 -0.44273,-4.8893 -1.3281,-6.3086 -0.88543,-1.4192 -2.194,-2.1289 -3.9258,-2.1289 -1.7448,2e-5 -3.0664,0.71291 -3.9648,2.1387 -0.89845,1.4258 -1.3477,3.5254 -1.3477,6.2988 -7e-6,2.7604 0.44921,4.8568 1.3477,6.2891 0.89843,1.4323 2.22,2.1484 3.9648,2.1484 1.7318,0 3.0403,-0.70963 3.9258,-2.1289 0.8854,-1.4193 1.3281,-3.5221 1.3281,-6.3086 z m -10.566,-8.17 c 0.57291,-1.0677 1.3639,-1.888 2.373,-2.4609 1.0091,-0.57289 2.1777,-0.85935 3.5059,-0.85937 2.6302,2e-5 4.7005,1.0124 6.2109,3.0371 1.5104,2.0248 2.2656,4.8145 2.2656,8.3691 -2.2e-5,3.6068 -0.75848,6.4356 -2.2754,8.4863 -1.5169,2.0508 -3.597,3.0762 -6.2402,3.0762 -1.3021,0 -2.4512,-0.28321 -3.4473,-0.84961 -0.9961,-0.56641 -1.7936,-1.39 -2.3926,-2.4707 v 2.7539 h -3.5938 v -30.391 h 3.5938 z"
     id="path5855" /><path
     d="m 90.815,338.5 c -0.96356,0.5599 -1.9564,0.97982 -2.9785,1.2598 -1.0222,0.27995 -2.0671,0.41993 -3.1348,0.41993 -3.3854,0 -6.0319,-1.0156 -7.9395,-3.0469 -1.9076,-2.0312 -2.8613,-4.8437 -2.8613,-8.4375 -4e-6,-3.5937 0.95377,-6.4062 2.8613,-8.4375 1.9075,-2.0312 4.554,-3.0468 7.9395,-3.0469 1.0547,2e-5 2.0833,0.13674 3.0859,0.41015 1.0026,0.27346 2.0117,0.69664 3.0273,1.2695 v 3.7695 c -0.95054,-0.84634 -1.9043,-1.4583 -2.8613,-1.8359 -0.95705,-0.37759 -2.041,-0.56639 -3.252,-0.56641 -2.2526,2e-5 -3.9844,0.72919 -5.1953,2.1875 -1.2109,1.4584 -1.8164,3.5417 -1.8164,6.25 -7e-6,2.6953 0.60872,4.7754 1.8262,6.2402 1.2174,1.4648 2.946,2.1973 5.1855,2.1973 1.25,0 2.3698,-0.19205 3.3594,-0.57617 0.98956,-0.38411 1.9075,-0.97981 2.7539,-1.7871 z"
     id="path5857" /><path
     d="m 110.91,320.53 0,-11.309 3.5938,0 0,30.391 -3.5938,0 0,-2.7539 c -0.59897,1.0807 -1.3965,1.9043 -2.3926,2.4707 -0.9961,0.5664 -2.1452,0.84961 -3.4473,0.84961 -2.6432,0 -4.7233,-1.0254 -6.2402,-3.0762 -1.5169,-2.0508 -2.2754,-4.8796 -2.2754,-8.4863 -3e-6,-3.5547 0.76172,-6.3444 2.2852,-8.3691 1.5234,-2.0247 3.6003,-3.0371 6.2305,-3.0371 1.3151,2e-5 2.4739,0.28322 3.4766,0.84961 1.0026,0.56642 1.7904,1.39 2.3633,2.4707 z m -10.566,8.1641 c -10e-6,2.7865 0.4427,4.8893 1.3281,6.3086 0.88541,1.4193 2.194,2.1289 3.9258,2.1289 1.7318,0 3.0501,-0.71614 3.9551,-2.1484 0.90493,-1.4323 1.3574,-3.5286 1.3574,-6.2891 -2e-5,-2.7734 -0.45249,-4.873 -1.3574,-6.2988 -0.90496,-1.4258 -2.2233,-2.1386 -3.9551,-2.1387 -1.7318,2e-5 -3.0404,0.70966 -3.9258,2.1289 -0.88542,1.4193 -1.3281,3.5222 -1.3281,6.3086 z"
     id="path5859" /><path
     d="m 139.94,327.78 0,1.7578 -15.566,0 0,0.11718 c 0,2.3828 0.62174,4.2253 1.8652,5.5274 1.24346,1.3021 2.998,1.9531 5.2637,1.9531 1.1458,0 2.3437,-0.18229 3.5938,-0.54687 1.25,-0.36458 2.5846,-0.91797 4.0039,-1.6602 v 3.5742 c -1.3672,0.5599 -2.6856,0.97982 -3.9551,1.2598 -1.2696,0.27995 -2.4968,0.41993 -3.6816,0.41993 -3.3984,0 -6.0547,-1.0189 -7.9688,-3.0566 -1.9141,-2.0378 -2.8711,-4.847 -2.8711,-8.4277 0,-3.4896 0.9375,-6.276 2.8125,-8.3594 1.875,-2.0833 4.375,-3.125 7.5,-3.125 2.7864,2e-5 4.9837,0.94403 6.5918,2.832 1.608,1.888 2.4121,4.4662 2.4121,7.7344 z m -3.5938,-1.0547 c -0.0521,-2.1094 -0.55015,-3.7142 -1.4941,-4.8145 -0.94403,-1.1002 -2.3014,-1.6504 -4.0723,-1.6504 -1.7318,2e-5 -3.1576,0.57294 -4.2773,1.7188 -1.1198,1.1458 -1.7839,2.7344 -1.9922,4.7656 z"
     id="path5861" /><path
     d="m 163.04,309.22 0,2.9883 -4.082,0 c -1.2891,2e-5 -2.1843,0.2637 -2.6856,0.79101 -0.50132,0.52737 -0.75197,1.4616 -0.75195,2.8027 v 1.9336 h 7.5195 v 2.793 h -7.5195 v 19.082 h -3.5938 v -19.082 h -5.8398 v -2.793 h 5.8398 v -1.5234 c -1e-5,-2.3958 0.55012,-4.1601 1.6504,-5.293 1.1002,-1.1328 2.8157,-1.6992 5.1465,-1.6992 z"
     id="path5863" /><path
     d="m 183.1,328.5 c -2e-5,-2.6953 -0.43947,-4.7428 -1.3184,-6.1426 -0.87892,-1.3997 -2.1582,-2.0996 -3.8379,-2.0996 -1.7578,2e-5 -3.099,0.69989 -4.0234,2.0996 -0.92448,1.3998 -1.3867,3.4473 -1.3867,6.1426 -1e-5,2.6953 0.46548,4.7494 1.3965,6.1621 0.93098,1.4128 2.2819,2.1191 4.0527,2.1191 1.6536,0 2.9199,-0.70963 3.7988,-2.1289 0.87889,-1.4193 1.3183,-3.47 1.3184,-6.1523 z m 3.5938,9.707 c -2e-5,3.2812 -0.77476,5.7682 -2.3242,7.4609 -1.5495,1.6927 -3.8281,2.539 -6.8359,2.5391 -0.9896,-10e-6 -2.0248,-0.0911 -3.1055,-0.27344 -1.0807,-0.1823 -2.1615,-0.44922 -3.2422,-0.80078 v -3.5547 c 1.276,0.59896 2.4349,1.0417 3.4766,1.3281 1.0417,0.28645 1.9987,0.42968 2.8711,0.42969 1.9401,-10e-6 3.3528,-0.52735 4.2383,-1.582 0.8854,-1.0547 1.3281,-2.7279 1.3281,-5.0195 v -0.15625 -2.4414 c -0.57293,1.224 -1.3542,2.1354 -2.3438,2.7344 -0.9896,0.59896 -2.194,0.89844 -3.6133,0.89844 -2.5521,0 -4.5898,-1.0221 -6.1133,-3.0664 -1.5234,-2.0443 -2.2852,-4.7786 -2.2852,-8.2031 0,-3.4375 0.76172,-6.1784 2.2852,-8.2227 1.5234,-2.0442 3.5612,-3.0664 6.1133,-3.0664 1.4062,2e-5 2.5976,0.27997 3.5742,0.83984 0.97655,0.55992 1.7708,1.4258 2.3828,2.5977 v -2.832 h 3.5938 z"
     id="path5865" /><path
     d="m 210.93,326.06 0,13.555 -3.6133,0 0,-13.555 c -2e-5,-1.9661 -0.34507,-3.4114 -1.0352,-4.3359 -0.69012,-0.92447 -1.7708,-1.3867 -3.2422,-1.3867 -1.6797,2e-5 -2.972,0.59572 -3.877,1.7871 -0.90495,1.1914 -1.3574,2.9004 -1.3574,5.127 v 12.363 h -3.5938 v -30.391 h 3.5938 v 11.797 c 0.63802,-1.25 1.5039,-2.1972 2.5977,-2.8418 1.0937,-0.64451 2.3893,-0.96677 3.8867,-0.96679 2.2265,2e-5 3.89,0.73244 4.9902,2.1973 1.1002,1.46486 1.6504,3.6817 1.6504,6.6504 z"
     id="path5867" /><path
     d="m 219.47,317.74 9.1992,0 0,19.082 7.1289,0 0,2.793 -17.852,0 0,-2.793 7.1289,0 0,-16.289 -5.6055,0 z m 5.6055,-8.5156 3.5938,0 0,4.5508 -3.5938,0 z"
     id="path5869" /><path
     d="m 250.25,340.01 0,-19.473 -6.1914,0 0,-2.793 9.7852,0 0,22.266 c -2e-5,2.539 -0.5827,4.4954 -1.748,5.8691 -1.1654,1.3737 -2.8223,2.0605 -4.9707,2.0605 h -4.9609 v -3.0469 h 4.5703 c 1.1719,-10e-6 2.0508,-0.40691 2.6367,-1.2207 0.58593,-0.8138 0.8789,-2.0345 0.87891,-3.6621 z m 0,-30.781 3.5938,0 0,4.5508 -3.5938,0 z"
     id="path5871" /><path
     d="m 267.2,309.22 3.7109,0 0,17.598 9.4336,-9.082 4.375,0 -8.6133,8.2422 9.9609,13.633 -4.3945,0 -8.0859,-11.289 -2.6758,2.5195 0,8.7695 -3.7109,0 z"
     id="path5873" /><path
     d="m 299.13,331.69 c -10e-6,1.6146 0.29621,2.832 0.88867,3.6524 0.59243,0.82031 1.4681,1.2305 2.627,1.2305 h 4.1992 v 3.0469 h -4.5508 c -2.1484,0 -3.8119,-0.6901 -4.9902,-2.0703 -1.1784,-1.3802 -1.7676,-3.3333 -1.7676,-5.8594 v -19.863 h -5.7617 v -2.8125 h 9.3555 z"
     id="path5875" /><path
     d="m 323.92,319.97 c 0.4427,-0.93748 1.0058,-1.6308 1.6895,-2.0801 0.68358,-0.44919 1.5071,-0.6738 2.4707,-0.67382 1.7578,2e-5 2.998,0.68036 3.7207,2.041 0.72264,1.3607 1.084,3.9225 1.084,7.6856 v 12.676 h -3.2812 v -12.52 c -2e-5,-3.0859 -0.17255,-5.0032 -0.51758,-5.752 -0.34507,-0.74868 -0.97333,-1.123 -1.8848,-1.123 -1.0417,2e-5 -1.7546,0.40041 -2.1387,1.2012 -0.38413,0.8008 -0.57618,2.6921 -0.57617,5.6738 v 12.52 h -3.2812 v -12.52 c -10e-6,-3.125 -0.18556,-5.0521 -0.55664,-5.7812 -0.3711,-0.72915 -1.0384,-1.0937 -2.002,-1.0938 -0.95053,2e-5 -1.6113,0.40041 -1.9824,1.2012 -0.37109,0.8008 -0.55664,2.6921 -0.55664,5.6738 v 12.52 h -3.2617 v -21.875 h 3.2617 v 1.875 c 0.42969,-0.78123 0.96679,-1.3769 1.6113,-1.7871 0.64453,-0.41013 1.377,-0.61521 2.1973,-0.61523 0.98957,2e-5 1.8131,0.22788 2.4707,0.68359 0.65754,0.45575 1.1686,1.1458 1.5332,2.0703 z"
     id="path5877" /><path
     d="m 42.494,369.26 0,13.555 -3.6133,0 0,-13.555 c -1.7e-5,-1.9661 -0.34507,-3.4114 -1.0352,-4.3359 -0.69012,-0.92446 -1.7708,-1.3867 -3.2422,-1.3867 -1.6797,2e-5 -2.972,0.59572 -3.877,1.7871 -0.90496,1.1914 -1.3574,2.9004 -1.3574,5.127 v 12.363 h -3.5938 v -21.875 h 3.5938 v 3.2812 c 0.63801,-1.25 1.5039,-2.1972 2.5977,-2.8418 1.0937,-0.64451 2.3893,-0.96678 3.8867,-0.9668 2.2265,2e-5 3.89,0.73244 4.9902,2.1973 1.1002,1.46486 1.6504,3.6817 1.6504,6.6504 z"
     id="path5879" /><path
     d="m 58.061,363.46 c -1.8229,2e-5 -3.2031,0.70966 -4.1406,2.1289 -0.93751,1.4193 -1.4063,3.5222 -1.4062,6.3086 -6e-6,2.7734 0.46874,4.8731 1.4062,6.2988 0.93749,1.4258 2.3177,2.1387 4.1406,2.1387 1.8359,1e-5 3.2226,-0.71288 4.1602,-2.1387 0.93748,-1.4258 1.4062,-3.5254 1.4062,-6.2988 -1.7e-5,-2.7864 -0.46877,-4.8893 -1.4062,-6.3086 C 61.28368,364.1697 59.897,363.46 58.061,363.46 z m 0,-3.0469 c 3.0338,2e-5 5.3548,0.98309 6.9629,2.9492 1.6081,1.9662 2.4121,4.8112 2.4121,8.5352 -2.1e-5,3.737 -0.8008,6.5853 -2.4023,8.5449 -1.6016,1.9596 -3.9258,2.9394 -6.9727,2.9394 -3.0339,0 -5.3516,-0.97982 -6.9531,-2.9394 -1.6016,-1.9596 -2.4023,-4.8079 -2.4023,-8.5449 -2e-6,-3.7239 0.80078,-6.569 2.4023,-8.5352 1.6016,-1.9661 3.9193,-2.9492 6.9531,-2.9492 z"
     id="path5881" /><path
     d="m 77.416,380.06 0,11.074 -3.6133,0 0,-30.195 3.6133,0 0,2.793 c 0.59895,-1.0807 1.3965,-1.9043 2.3926,-2.4707 0.99608,-0.56639 2.1452,-0.84959 3.4473,-0.84961 2.6432,2e-5 4.7168,1.0222 6.2207,3.0664 1.5039,2.0443 2.2558,4.8763 2.2559,8.4961 -2.2e-5,3.5547 -0.75523,6.3444 -2.2656,8.3691 -1.51037,2.0247 -3.5807,3.0371 -6.2109,3.0371 -1.3281,0 -2.4902,-0.28321 -3.4863,-0.84961 -0.9961,-0.56641 -1.7806,-1.39 -2.3535,-2.4707 z m 10.547,-8.1641 c -1.8e-5,-2.7864 -0.43947,-4.8893 -1.3184,-6.3086 -0.87892,-1.4192 -2.1843,-2.1289 -3.916,-2.1289 -1.7448,2e-5 -3.0664,0.71291 -3.9648,2.1387 -0.89844,1.4258 -1.3477,3.5254 -1.3477,6.2988 -8e-6,2.7604 0.44921,4.8568 1.3477,6.2891 0.89843,1.4323 2.22,2.1484 3.9648,2.1484 1.7318,1e-5 3.0371,-0.70963 3.916,-2.1289 0.87889,-1.4193 1.3183,-3.5221 1.3184,-6.3086 z"
     id="path5883" /><path
     d="m 100.64,371.98 c 0,2.7865 0.43945,4.8893 1.3184,6.3086 0.8789,1.4193 2.1842,2.1289 3.916,2.1289 1.7318,0 3.0436,-0.71289 3.9356,-2.1387 0.89191,-1.4258 1.3379,-3.5254 1.3379,-6.2988 -2e-5,-2.7734 -0.44598,-4.873 -1.3379,-6.2988 -0.89195,-1.4258 -2.2038,-2.1386 -3.9356,-2.1387 -1.7318,2e-5 -3.0371,0.70965 -3.916,2.1289 -0.87891,1.4193 -1.3184,3.5222 -1.3184,6.3086 z m 10.508,8.125 c -0.58596,1.0807 -1.377,1.9108 -2.373,2.4902 -0.99611,0.57943 -2.1517,0.86914 -3.4668,0.86914 -2.6172,0 -4.6842,-1.0124 -6.2012,-3.0371 -1.5169,-2.0247 -2.2754,-4.8144 -2.2754,-8.3691 -2e-6,-3.6198 0.7552,-6.4518 2.2656,-8.4961 1.5104,-2.0442 3.5807,-3.0664 6.2109,-3.0664 1.3021,3e-5 2.4512,0.28323 3.4473,0.84961 0.99608,0.56643 1.7936,1.39 2.3926,2.4707 v -2.793 h 3.6133 v 30.195 h -3.6133 z"
     id="path5885" /><path
     d="m 140.78,365.45 c -0.76825,-0.59894 -1.5495,-1.0351 -2.3438,-1.3086 -0.79429,-0.27342 -1.6667,-0.41014 -2.6172,-0.41016 -2.2396,2e-5 -3.9518,0.70314 -5.1367,2.1094 -1.1849,1.40626 -1.7774,3.4375 -1.7774,6.0938 v 10.879 h -3.6133 v -21.875 h 3.6133 v 4.2774 c 0.59895,-1.5495 1.5202,-2.7376 2.7637,-3.5645 1.2435,-0.8268 2.7181,-1.2402 4.4238,-1.2402 0.8854,2e-5 1.7122,0.1107 2.4805,0.33203 0.76821,0.22138 1.5039,0.56643 2.207,1.0352 z"
     id="path5887" /><path
     d="m 161.28,361.7 0,3.5156 c -1.0287,-0.59894 -2.0638,-1.0482 -3.1055,-1.3477 -1.0417,-0.29946 -2.1029,-0.4492 -3.1836,-0.44922 -1.6276,2e-5 -2.8418,0.26369 -3.6426,0.79102 -0.80078,0.52736 -1.2012,1.3314 -1.2012,2.4121 -1e-5,0.97657 0.29947,1.7057 0.89844,2.1875 0.59895,0.48178 2.0898,0.95053 4.4727,1.4062 l 1.4453,0.27343 c 1.7838,0.33856 3.1348,1.0156 4.0527,2.0312 0.91795,1.0156 1.3769,2.3372 1.377,3.9648 -2e-5,2.1615 -0.76825,3.8509 -2.3047,5.0684 -1.5365,1.2174 -3.6719,1.8262 -6.4062,1.8262 -1.0807,0 -2.2136,-0.11393 -3.3984,-0.3418 -1.1849,-0.22786 -2.4674,-0.56966 -3.8476,-1.0254 v -3.7109 c 1.3411,0.69011 2.6237,1.2077 3.8476,1.5527 1.224,0.34505 2.3828,0.51758 3.4766,0.51758 1.5885,0 2.819,-0.32227 3.6914,-0.9668 0.87238,-0.64453 1.3086,-1.5462 1.3086,-2.7051 -1e-5,-1.6667 -1.5951,-2.819 -4.7852,-3.457 l -0.15625,-0.0391 -1.3477,-0.27344 c -2.0703,-0.40364 -3.5807,-1.084 -4.5312,-2.041 -0.95052,-0.95701 -1.4258,-2.2624 -1.4258,-3.916 0,-2.0963 0.70963,-3.7142 2.1289,-4.8535 1.41927,-1.1393 3.444,-1.709 6.0742,-1.709 1.1719,2e-5 2.2982,0.10744 3.3789,0.32226 1.0807,0.21487 2.1419,0.53713 3.1836,0.9668 z"
     id="path5889" /><path
     d="m 178.33,354.73 0,6.2109 8.1641,0 0,2.793 -8.1641,0 0,11.875 c -2e-5,1.6146 0.30597,2.7409 0.91797,3.3789 0.61196,0.63802 1.6797,0.95703 3.2031,0.95703 h 4.043 v 2.8711 h -4.3945 c -2.6953,0 -4.5964,-0.54036 -5.7031,-1.6211 -1.1068,-1.0807 -1.6602,-2.9427 -1.6602,-5.5859 v -11.875 h -5.8398 v -2.793 h 5.8398 v -6.2109 z"
     id="path5891" /><path
     d="m 194.21,374.53 0,-13.555 3.5938,0 0,13.555 c 0,1.9662 0.3483,3.4115 1.0449,4.3359 0.69661,0.92448 1.7741,1.3867 3.2324,1.3867 1.6927,0 2.9883,-0.5957 3.8867,-1.7871 0.89842,-1.1914 1.3476,-2.9004 1.3476,-5.127 v -12.363 h 3.6133 v 21.836 h -3.6133 v -3.2812 c -0.63804,1.263 -1.5072,2.2201 -2.6074,2.8711 -1.1003,0.65104 -2.3861,0.97656 -3.8574,0.97656 -2.2396,0 -3.9063,-0.73242 -5,-2.1973 -1.0938,-1.4648 -1.6406,-3.6816 -1.6406,-6.6504 z"
     id="path5893" /><path
     d="m 216.42,360.94 3.7305,0 6.3477,18.359 6.3672,-18.359 3.7305,0 -7.7734,21.875 -4.6289,0 z"
     id="path5895" /><path
     d="m 238.53,360.94 3.5547,0 3.8086,17.676 3.125,-11.289 3.0664,0 3.1641,11.289 3.8086,-17.676 3.5547,0 -5.1172,21.875 -3.4375,0 -3.4961,-11.992 -3.4766,11.992 -3.4375,0 z"
     id="path5897" /><path
     d="m 284.43,360.94 -7.832,10.469 8.5938,11.406 -4.1602,0 -6.4062,-8.7695 -6.3867,8.7695 -4.1602,0 8.5938,-11.406 -7.832,-10.469 3.9844,0 5.8008,7.9102 5.7617,-7.9102 z"
     id="path5899" /><path
     d="m 303.41,375.78 c -0.59897,1.5234 -1.3607,3.5286 -2.2852,6.0156 -1.2891,3.4375 -2.155,5.5338 -2.5977,6.2891 -0.59897,1.0156 -1.3477,1.7773 -2.2461,2.2852 -0.89845,0.5078 -1.9466,0.76171 -3.1445,0.76171 h -2.8906 v -3.0078 h 2.1289 c 1.0547,0 1.8815,-0.30599 2.4805,-0.91797 0.59895,-0.61198 1.3607,-2.194 2.2852,-4.7461 l -8.457,-21.523 h 3.8086 l 6.4844,17.109 6.3867,-17.109 h 3.8086 z"
     id="path5901" /><path
     d="m 315.15,360.9 15.879,0 0,3.2812 -12.559,15.703 12.559,0 0,2.9297 -16.348,0 0,-3.3203 12.559,-15.723 -12.09,0 z"
     id="path5903" /></g>
<g
   id="text4028"
   style="font-size:40px;font-style:normal;font-variant:normal;font-weight:normal;font-stretch:normal;text-align:start;line-height:108.00000429%;writing-mode:lr-tb;text-anchor:start;fill:#ffffff;font-family:DejaVu Sans Mono"><path
     d="m 156.4,419.97 c -1e-5,-0.71613 0.25064,-1.3346 0.75195,-1.8555 0.50129,-0.52081 1.1035,-0.78123 1.8066,-0.78125 0.72916,2e-5 1.3542,0.26044 1.875,0.78125 0.52082,0.52085 0.78124,1.1393 0.78125,1.8555 -1e-5,0.72918 -0.25717,1.3477 -0.77148,1.8555 -0.51434,0.50783 -1.1426,0.76173 -1.8848,0.76172 -0.72918,10e-6 -1.3379,-0.24738 -1.8262,-0.74219 -0.48829,-0.49478 -0.73243,-1.1198 -0.73242,-1.875 z m 2.5977,-11.914 c -1.836,3e-5 -3.2064,0.98961 -4.1113,2.9688 -0.90496,1.9792 -1.3574,4.9935 -1.3574,9.043 -1e-5,4.0365 0.45246,7.0443 1.3574,9.0234 0.90494,1.9792 2.2754,2.9688 4.1113,2.9688 1.8489,0 3.2259,-0.98958 4.1308,-2.9688 0.90494,-1.9792 1.3574,-4.987 1.3574,-9.0234 -2e-5,-4.0495 -0.45249,-7.0638 -1.3574,-9.043 -0.90496,-1.9791 -2.2819,-2.9687 -4.1308,-2.9688 z m 0,-3.125 c 3.112,3e-5 5.4655,1.2761 7.0605,3.8281 1.595,2.5521 2.3926,6.3216 2.3926,11.309 -2e-5,4.974 -0.79755,8.737 -2.3926,11.289 -1.5951,2.5521 -3.9486,3.8281 -7.0605,3.8281 -3.112,0 -5.4622,-1.276 -7.0508,-3.8281 -1.5885,-2.5521 -2.3828,-6.3151 -2.3828,-11.289 0,-4.987 0.79427,-8.7565 2.3828,-11.309 1.5885,-2.5521 3.9388,-3.8281 7.0508,-3.8281 z"
     id="path5906" /><path
     d="m 176.3,431.29 6.1328,0 0,-22.285 -6.6016,1.4844 0,-3.5938 6.5625,-1.4453 3.9453,0 0,25.84 6.0547,0 0,3.3203 -16.094,0 z"
     id="path5908" /><path
     d="m 202.38,431.29 13.398,0 0,3.3203 -17.715,0 0,-3.3203 c 2.4349,-2.5651 4.5638,-4.8307 6.3867,-6.7969 1.8229,-1.9661 3.0794,-3.3528 3.7695,-4.1602 1.3021,-1.5885 2.181,-2.8743 2.6367,-3.8574 0.45572,-0.98305 0.68358,-1.9889 0.6836,-3.0176 -2e-5,-1.6276 -0.47853,-2.9036 -1.4356,-3.8281 -0.95704,-0.92445 -2.2689,-1.3867 -3.9356,-1.3867 -1.1849,3e-5 -2.4284,0.21487 -3.7305,0.64453 -1.3021,0.42972 -2.6823,1.0808 -4.1406,1.9531 v -3.9844 c 1.3411,-0.63799 2.6595,-1.1198 3.9551,-1.4453 1.2956,-0.32549 2.5749,-0.48825 3.8379,-0.48828 2.8516,3e-5 5.1465,0.75849 6.8848,2.2754 1.7383,1.517 2.6074,3.5059 2.6074,5.9668 -2e-5,1.25 -0.28974,2.5 -0.86914,3.75 -0.57945,1.25 -1.5202,2.6302 -2.8223,4.1406 -0.72918,0.84637 -1.7871,2.0182 -3.1738,3.5156 -1.3867,1.4974 -3.4994,3.737 -6.3379,6.7188 z"
     id="path5910" /><path
     d="m 234.31,419.01 c 1.914,0.50783 3.3789,1.4095 4.3945,2.7051 1.0156,1.2956 1.5234,2.9134 1.5234,4.8535 -2e-5,2.6823 -0.90171,4.7884 -2.7051,6.3184 -1.80339,1.53 -4.3002,2.2949 -7.4902,2.2949 -1.3412,0 -2.7083,-0.1237 -4.1016,-0.3711 -1.3932,-0.24739 -2.7604,-0.60547 -4.1016,-1.0742 v -3.9258 c 1.3281,0.69011 2.6367,1.2044 3.9258,1.543 1.289,0.33855 2.5716,0.50782 3.8476,0.50781 2.1614,1e-5 3.8216,-0.48827 4.9805,-1.4648 1.1588,-0.97656 1.7383,-2.3828 1.7383,-4.2188 -1e-5,-1.6927 -0.57944,-3.0371 -1.7383,-4.0332 -1.1589,-0.99608 -2.7279,-1.4941 -4.707,-1.4941 h -3.0078 v -3.2422 h 3.0078 c 1.8099,2e-5 3.2226,-0.39712 4.2383,-1.1914 1.0156,-0.79425 1.5234,-1.901 1.5234,-3.3203 -2e-5,-1.4974 -0.47202,-2.6465 -1.416,-3.4473 -0.94402,-0.80075 -2.2884,-1.2011 -4.0332,-1.2012 -1.1589,3e-5 -2.3568,0.13024 -3.5938,0.39063 -1.237,0.26044 -2.5326,0.65106 -3.8867,1.1719 v -3.6328 c 1.5755,-0.41664 2.9785,-0.72914 4.209,-0.9375 1.2305,-0.2083 2.321,-0.31247 3.2715,-0.3125 2.8385,3e-5 5.1074,0.71292 6.8066,2.1387 1.6992,1.42578 2.5488,3.3171 2.5488,5.6738 -2e-5,1.6016 -0.44598,2.9362 -1.3379,4.0039 -0.89195,1.0677 -2.1908,1.8229 -3.8965,2.2656 z"
     id="path5912" /><path
     d="m 257.57,409.05 -9.1992,15.41 9.1992,0 z m -0.64453,-3.5938 4.5703,0 0,19.004 3.8867,0 0,3.2031 -3.8867,0 0,6.9531 -3.9258,0 0,-6.9531 -12.363,0 0,-3.7305 z"
     id="path5914" /><path
     d="m 271.32,405.45 14.766,0 0,3.3203 -11.172,0 0,7.168 c 0.55989,-0.20832 1.123,-0.36131 1.6895,-0.45899 0.56639,-0.0976 1.136,-0.14646 1.709,-0.14648 3.0208,2e-5 5.4166,0.89194 7.1875,2.6758 1.7708,1.7839 2.6562,4.1992 2.6562,7.2461 -2e-5,3.0729 -0.92775,5.4948 -2.7832,7.2656 -1.8555,1.7708 -4.3913,2.6562 -7.6074,2.6562 -1.5495,0 -2.9655,-0.10417 -4.248,-0.3125 -1.2826,-0.20834 -2.4316,-0.52084 -3.4473,-0.9375 v -4.0039 c 1.1979,0.65105 2.4023,1.1361 3.6133,1.4551 1.2109,0.31901 2.4479,0.47852 3.7109,0.47851 2.1745,10e-6 3.8509,-0.57291 5.0293,-1.7188 1.1784,-1.1458 1.7676,-2.7734 1.7676,-4.8828 -2e-5,-2.0833 -0.60874,-3.7044 -1.8262,-4.8633 -1.2175,-1.1588 -2.9134,-1.7383 -5.0879,-1.7383 -1.0547,1e-5 -2.0834,0.12046 -3.0859,0.36133 -1.0026,0.2409 -1.9596,0.60223 -2.8711,1.084 z"
     id="path5916" /><path
     d="m 310.7,406.1 0,3.6328 c -0.82033,-0.48175 -1.6927,-0.84959 -2.6172,-1.1035 -0.9245,-0.25388 -1.888,-0.38083 -2.8906,-0.38086 -2.5,3e-5 -4.3945,0.94078 -5.6836,2.8223 -1.2891,1.88152 -1.9336,4.6517 -1.9336,8.3106 0.625,-1.3021 1.4909,-2.3014 2.5977,-2.998 1.1068,-0.6966 2.3763,-1.0449 3.8086,-1.0449 2.8125,2e-5 4.9902,0.86265 6.5332,2.5879 1.543,1.7253 2.3144,4.1699 2.3144,7.334 -2e-5,3.151 -0.79429,5.5924 -2.3828,7.3242 -1.5886,1.7318 -3.8216,2.5977 -6.6992,2.5977 -3.3854,0 -5.8659,-1.2142 -7.4414,-3.6426 -1.5755,-2.4284 -2.3633,-6.2532 -2.3633,-11.475 0,-4.9219 0.94726,-8.6751 2.8418,-11.26 1.8945,-2.5846 4.6387,-3.8769 8.2324,-3.877 0.96353,3e-5 1.9271,0.10094 2.8906,0.30273 0.96352,0.20186 1.8945,0.49157 2.793,0.86915 z m -7.0312,12.324 c -1.6797,2e-5 -3.0013,0.60549 -3.9648,1.8164 -0.96355,1.211 -1.4453,2.8841 -1.4453,5.0195 -10e-6,2.1354 0.48176,3.8086 1.4453,5.0195 0.96353,1.2109 2.2852,1.8164 3.9648,1.8164 1.7448,0 3.0599,-0.57617 3.9453,-1.7285 0.8854,-1.15233 1.3281,-2.8548 1.3281,-5.1074 -2e-5,-2.2656 -0.44272,-3.9713 -1.3281,-5.1172 -0.88544,-1.1458 -2.2005,-1.7187 -3.9453,-1.7188 z"
     id="path5918" /><path
     d="m 318.12,405.45 18.359,0 0,1.6797 -10.43,27.48 -4.1211,0 10.156,-25.84 -13.965,0 z"
     id="path5920" /><path
     d="m 351.5,420.77 c -1.7578,2e-5 -3.1152,0.49155 -4.0723,1.4746 -0.95704,0.98309 -1.4356,2.3731 -1.4356,4.1699 0,1.7969 0.48502,3.1934 1.4551,4.1894 0.97004,0.9961 2.321,1.4941 4.0527,1.4941 1.7708,0 3.1348,-0.49153 4.0918,-1.4746 0.95702,-0.98307 1.4355,-2.3861 1.4356,-4.209 -2e-5,-1.7838 -0.48504,-3.1706 -1.4551,-4.1602 -0.97007,-0.98957 -2.3275,-1.4844 -4.0723,-1.4844 z m -3.4375,-1.6406 c -1.6797,-0.42967 -2.9916,-1.2304 -3.9356,-2.4023 -0.94402,-1.1719 -1.416,-2.5846 -1.416,-4.2383 0,-2.3177 0.78776,-4.1569 2.3633,-5.5176 1.5755,-1.3606 3.7174,-2.041 6.4258,-2.041 2.7213,3e-5 4.8698,0.68037 6.4453,2.041 1.5755,1.3607 2.3633,3.1999 2.3633,5.5176 -2e-5,1.6537 -0.47203,3.0664 -1.416,4.2383 -0.94403,1.1719 -2.2559,1.9727 -3.9355,2.4023 1.9531,0.4297 3.4472,1.2956 4.4824,2.5977 1.0351,1.3021 1.5527,2.9883 1.5527,5.0586 -2e-5,2.6302 -0.83986,4.6875 -2.5195,6.1719 -1.6797,1.4844 -4.0039,2.2266 -6.9726,2.2266 -2.9688,0 -5.2897,-0.73894 -6.9629,-2.2168 -1.6732,-1.47786 -2.5098,-3.5254 -2.5098,-6.1426 0,-2.0833 0.51757,-3.7793 1.5527,-5.0879 1.0352,-1.3086 2.5293,-2.1777 4.4824,-2.6074 z m -1.4258,-6.2695 c 0,1.5625 0.41666,2.7539 1.25,3.5742 0.83333,0.82033 2.0378,1.2305 3.6133,1.2305 1.5885,10e-6 2.7995,-0.41014 3.6328,-1.2305 0.83331,-0.8203 1.25,-2.0117 1.25,-3.5742 -2e-5,-1.5885 -0.41343,-2.7995 -1.2402,-3.6328 -0.82683,-0.83331 -2.041,-1.25 -3.6426,-1.25 -1.5755,2e-5 -2.78,0.41994 -3.6133,1.2598 -0.83334,0.83987 -1.25,2.0476 -1.25,3.623 z"
     id="path5922" /><path
     d="m 375.17,421.69 c 1.6797,2e-5 2.998,-0.60545 3.9551,-1.8164 0.95701,-1.2109 1.4355,-2.8841 1.4356,-5.0195 -2e-5,-2.1354 -0.47854,-3.8086 -1.4356,-5.0195 -0.95705,-1.2109 -2.2754,-1.8164 -3.9551,-1.8164 -1.7448,2e-5 -3.0599,0.5762 -3.9453,1.7285 -0.88543,1.1524 -1.3281,2.8548 -1.3281,5.1074 0,2.2656 0.43945,3.9714 1.3184,5.1172 0.8789,1.1458 2.1973,1.7188 3.9551,1.7188 z m -7.0312,12.324 0,-3.6328 c 0.82031,0.48177 1.6927,0.84961 2.6172,1.1035 0.92447,0.25391 1.888,0.38087 2.8906,0.38086 2.5,10e-6 4.3913,-0.94075 5.6738,-2.8223 1.2825,-1.8815 1.9238,-4.6517 1.9238,-8.3106 -0.612,1.3021 -1.4714,2.3014 -2.5781,2.998 -1.1068,0.69662 -2.3763,1.0449 -3.8086,1.0449 -2.8125,1e-5 -4.9902,-0.86587 -6.5332,-2.5977 -1.543,-1.73183 -2.3145,-4.1862 -2.3145,-7.3633 0,-3.138 0.79102,-5.5696 2.373,-7.2949 1.582,-1.7252 3.8184,-2.5879 6.709,-2.5879 3.3854,3e-5 5.8659,1.2175 7.4414,3.6523 1.5755,2.4349 2.3633,6.263 2.3633,11.484 -2e-5,4.9089 -0.94728,8.6556 -2.8418,11.24 -1.8946,2.5846 -4.6452,3.877 -8.252,3.877 -0.95053,0 -1.9076,-0.10092 -2.8711,-0.30274 -0.96355,-0.20182 -1.8945,-0.49153 -2.793,-0.86914 z"
     id="path5924" /></g>
<g
   id="text5003"
   style="font-size:40px;font-style:italic;font-variant:normal;font-weight:normal;font-stretch:normal;text-align:center;line-height:125%;writing-mode:lr-tb;text-anchor:middle;fill:#000000;font-family:DejaVu Sans Mono"><path
     d="m 40.697,148.74 -7.1094,15.117 8.3984,0 z m -1.875,-3.2812 4.8047,0 3.2422,29.16 -3.9258,0 -0.68359,-7.5977 -10.156,0 -3.5938,7.5977 -4.2383,0 z"
     id="path5927" /><path
     d="m 63.92,163.62 c -1.5495,1e-5 -2.7018,0.0488 -3.457,0.14649 -0.75522,0.0977 -1.4128,0.26368 -1.9727,0.49804 -0.88542,0.35158 -1.5951,0.92775 -2.1289,1.7285 -0.53386,0.80079 -0.80079,1.6764 -0.80078,2.627 -5e-6,1.0807 0.33528,1.9434 1.0059,2.5879 0.67057,0.64454 1.5788,0.9668 2.7246,0.9668 1.9271,0 3.5905,-0.6901 4.9902,-2.0703 1.3997,-1.3802 2.347,-3.2747 2.8418,-5.6836 l 0.15625,-0.80078 z m 7.2461,-1.4844 -2.4414,12.48 -3.5938,0 0.625,-3.2422 c -0.93752,1.224 -2.0443,2.1647 -3.3203,2.8223 -1.2761,0.65756 -2.6302,0.98633 -4.0625,0.98633 -1.9922,0 -3.584,-0.54362 -4.7754,-1.6309 -1.1914,-1.0872 -1.7871,-2.5293 -1.7871,-4.3262 -10e-7,-2.5521 1.0059,-4.5931 3.0176,-6.123 2.0117,-1.5299 4.7363,-2.2949 8.1738,-2.2949 h 4.8047 l 0.23438,-1.1914 c 0.02602,-0.11718 0.04555,-0.24087 0.05859,-0.3711 0.013,-0.13019 0.01951,-0.31248 0.01953,-0.54687 -1.8e-5,-1.1068 -0.41017,-1.9564 -1.2305,-2.5488 -0.82033,-0.59243 -1.9922,-0.88865 -3.5156,-0.88867 -1.1198,2e-5 -2.3275,0.16603 -3.623,0.49804 -1.2956,0.33205 -2.666,0.8301 -4.1113,1.4941 l 0.68359,-3.5156 c 1.4062,-0.50779 2.7409,-0.88865 4.0039,-1.1426 1.263,-0.25388 2.4739,-0.38084 3.6328,-0.38086 2.4219,2e-5 4.3066,0.53388 5.6543,1.6016 1.3476,1.0677 2.0215,2.5456 2.0215,4.4336 -2.1e-5,0.41668 -0.03908,0.96356 -0.11719,1.6406 -0.07815,0.6771 -0.19533,1.4258 -0.35156,2.2461 z"
     id="path5929" /></g><g
   id="text5007"
   style="font-size:40px;font-style:italic;font-variant:normal;font-weight:normal;font-stretch:normal;text-align:center;line-height:125%;writing-mode:lr-tb;text-anchor:middle;fill:#000000;font-family:DejaVu Sans Mono"><path
     d="m 104.62,145.45 17.285,0 -0.64453,3.3203 -13.359,0 -1.6797,8.6328 12.754,0 -0.625,3.3203 -12.773,0 -2.0312,10.566 13.711,0 -0.64454,3.3203 -17.676,0 z"
     id="path5932" /><path
     d="m 140.29,161.74 c 0.0781,-0.35155 0.13019,-0.64126 0.15625,-0.86914 0.026,-0.22785 0.039,-0.44595 0.0391,-0.6543 -2e-5,-1.5625 -0.42319,-2.7799 -1.2695,-3.6523 -0.84637,-0.87238 -2.0248,-1.3086 -3.5352,-1.3086 -1.6016,2e-5 -3.0632,0.58595 -4.3848,1.7578 -1.3216,1.1719 -2.2689,2.7474 -2.8418,4.7266 z m 0.44922,11.758 c -1.3672,0.5599 -2.7018,0.97982 -4.0039,1.2598 -1.3021,0.27995 -2.6237,0.41992 -3.9648,0.41992 -2.9037,0 -5.1107,-0.72591 -6.6211,-2.1777 -1.5104,-1.45179 -2.2656,-3.571 -2.2656,-6.3574 0,-2.0312 0.39062,-4.0234 1.1719,-5.9766 0.78125,-1.9531 1.862,-3.6393 3.2422,-5.0586 1.0807,-1.1198 2.2754,-1.9726 3.584,-2.5586 1.3086,-0.58592 2.6725,-0.87889 4.0918,-0.87891 2.4219,2e-5 4.3587,0.74546 5.8106,2.2363 1.4518,1.4909 2.1777,3.4798 2.1777,5.9668 -2e-5,0.44273 -0.0326,0.99286 -0.0977,1.6504 -0.0651,0.65757 -0.1758,1.4942 -0.33203,2.5098 h -15.762 c -0.0781,0.41668 -0.13673,0.79428 -0.17578,1.1328 -0.0391,0.33855 -0.0586,0.63803 -0.0586,0.89844 0,1.8099 0.5013,3.1901 1.5039,4.1406 1.0026,0.95052 2.4609,1.4258 4.375,1.4258 1.1458,0 2.3991,-0.18555 3.7598,-0.55664 1.3607,-0.37109 2.7832,-0.92122 4.2676,-1.6504 z"
     id="path5934" /></g><g
   id="text5011"
   style="font-size:40px;font-style:italic;font-variant:normal;font-weight:normal;font-stretch:normal;text-align:center;line-height:125%;writing-mode:lr-tb;text-anchor:middle;fill:#000000;font-family:DejaVu Sans Mono"><path
     d="m 179.08,175.14 -0.19531,0 c -2.7995,0 -4.8405,-0.77474 -6.123,-2.3242 -1.2826,-1.5495 -1.9238,-4.0299 -1.9238,-7.4414 0,-1.4453 0.13997,-2.998 0.41992,-4.6582 0.27995,-1.6601 0.69987,-3.3756 1.2598,-5.1465 0.3776,-1.1979 0.7845,-2.2721 1.2207,-3.2227 0.4362,-0.9505 0.9082,-1.8099 1.416,-2.5781 1.1458,-1.6536 2.4284,-2.8743 3.8477,-3.6621 1.4192,-0.78774 3.0729,-1.1816 4.9609,-1.1816 2.6302,3e-5 4.5801,0.79755 5.8496,2.3926 1.2695,1.5951 1.9043,4.0528 1.9043,7.373 -2e-5,1.0808 -0.0944,2.2624 -0.2832,3.5449 -0.18883,1.2826 -0.46552,2.6465 -0.83008,4.0918 -0.39065,1.5104 -0.79429,2.8255 -1.2109,3.9453 -0.41669,1.1198 -0.8659,2.1159 -1.3477,2.9883 -0.70314,1.237 -1.5104,2.2982 -2.4219,3.1836 -0.91147,0.88541 -1.8815,1.543 -2.9102,1.9726 l 3.0078,3.6719 -3.0078,1.7969 z m -0.0391,-3.1641 c 1.1068,0 2.1289,-0.33203 3.0664,-0.9961 0.93749,-0.66406 1.7122,-1.6146 2.3242,-2.8516 0.96353,-1.888 1.7448,-4.1732 2.3438,-6.8555 0.59894,-2.6823 0.89842,-5.2604 0.89844,-7.7344 -2e-5,-1.8489 -0.34181,-3.2129 -1.0254,-4.0918 -0.68361,-0.87888 -1.7416,-1.3183 -3.1738,-1.3184 -1.1068,3e-5 -2.1224,0.33206 -3.0469,0.99609 -0.92449,0.66409 -1.6927,1.6146 -2.3047,2.8516 -0.98959,1.9141 -1.7839,4.1992 -2.3828,6.8555 -0.59897,2.6563 -0.89845,5.2214 -0.89844,7.6953 -1e-5,1.862 0.34179,3.2357 1.0254,4.1211 0.68359,0.88542 1.7415,1.3281 3.1738,1.3281 z"
     id="path5937" /><path
     d="m 208.41,171.86 c -0.79429,1.0938 -1.7285,1.9206 -2.8027,2.4805 -1.0742,0.55989 -2.2754,0.83984 -3.6035,0.83984 -2.1354,0 -3.8021,-0.67383 -5,-2.0215 -1.1979,-1.34767 -1.7969,-3.2389 -1.7969,-5.6738 0,-1.849 0.26693,-3.7174 0.80078,-5.6055 0.53385,-1.888 1.2695,-3.5612 2.207,-5.0195 0.97655,-1.5364 2.1452,-2.6953 3.5058,-3.4766 1.3607,-0.78123 2.8874,-1.1719 4.5801,-1.1719 1.3021,2e-5 2.3926,0.27672 3.2715,0.83008 0.87889,0.55341 1.5462,1.3835 2.002,2.4902 l 0.52734,-2.793 h 3.5938 l -5.8398,30.195 h -3.5938 z m -2.07,-16.6 c -1.1068,2e-5 -2.1029,0.28647 -2.9883,0.85937 -0.88542,0.57294 -1.6276,1.4193 -2.2266,2.5391 -0.63803,1.224 -1.1426,2.5912 -1.5137,4.1016 -0.3711,1.5104 -0.55665,2.9688 -0.55664,4.375 -10e-6,1.6667 0.32877,2.9167 0.98633,3.75 0.65754,0.83333 1.6504,1.25 2.9785,1.25 1.0677,0 2.0508,-0.29622 2.9492,-0.88868 0.89843,-0.59244 1.6732,-1.4551 2.3242,-2.5879 0.62498,-1.1068 1.1263,-2.4251 1.5039,-3.9551 0.37758,-1.5299 0.56639,-3.0241 0.5664,-4.4824 -1e-5,-1.6015 -0.34832,-2.8288 -1.0449,-3.6816 -0.69663,-0.85284 -1.6895,-1.2793 -2.9785,-1.2793 z"
     id="path5939" /></g></svg>